{"title":"The Prankster.2010.DvDScr.XviD.Feel-Free","uid":5875987,"size":920250866,"categoryP":"video","categoryS":"movies","magnet":"?xt=urn:btih:0c8b8c53ce6893c1b22f663f641548490f4c46f0&amp;dn=The+Prankster.2010.DvDScr.XviD.Feel-Free&amp;tr=udp%3A%2F%2Ftracker.openbittorrent.com%3A80&amp;tr=udp%3A%2F%2Fopen.demonii.com%3A1337&amp;tr=udp%3A%2F%2Ftracker.coppersurfer.tk%3A6969&amp;tr=udp%3A%2F%2Fexodus.desync.com%3A6969","seeders":1,"leechers":0,"uploader":"neon","files":-1,"time":1286639408,"description":"To the outer world CHRIS KARAS is a shy, handsome, &quot;A&quot; student, the son of a hard-working Greek contractor.\n\nGenre:Comedy\nLanguage: English\n &lt;a href=&quot; http://www.imdb.com/title/tt1268981/&quot; rel=&quot;nofollow&quot; target=&quot;_NEW&quot;&gt; http://www.imdb.com/title/tt1268981/&lt;/a&gt;\nSource:DvDScr\n\nGeneral\nComplete name :The.Prankster.2010.DvDScr.XviD.Feel-Free.avi\nFormat : AVI\nFormat/Info : Audio Video Interleave\nFile size : 877 MiB\nDuration : 1h 57mn\nOverall bit rate : 1 048 Kbps\nVideo #0\nCodec ID : XVID\nCodec ID/Hint : XviD\nDuration : 1h 57mn\nBit rate : 910 Kbps\nWidth : 720 pixels\nHeight : 384 pixels\nDisplay aspect ratio : 1.875\nFrame rate : 23.976 fps\nResolution : 24 bits\nColorimetry : 4:2:0\nScan type : Progressive\nBits/(Pixel*Frame) : 0.137\nStream size : 762 MiB (87%)\nWriting library : XviD 1.2.1 (UTC 2008-12-04)\nAudio #1\nID : 1\nFormat : MPEG Audio\nFormat version : Version 1\nFormat profile : Layer 3\nCodec ID : 55\nCodec ID/Hint : MP3\nDuration : 1h 57mn\nBit rate mode : Constant\nBit rate : 128 Kbps\nChannel(s) : 2 channels\nSampling rate : 48.0 KHz\nResolution : 16 bits\nStream size : 107 MiB (12%)\nAlignment : Aligned on interleaves\nInterleave, duration : 42 ms (1.00 video frame)\nInterleave, preload duration : 504 ms\nWriting library : LAME3.97","torrent":{"xt":"urn:btih:0c8b8c53ce6893c1b22f663f641548490f4c46f0","amp;dn":"The+Prankster.2010.DvDScr.XviD.Feel-Free","amp;tr":["udp%3A%2F%2Ftracker.openbittorrent.com%3A80","udp%3A%2F%2Fopen.demonii.com%3A1337","udp%3A%2F%2Ftracker.coppersurfer.tk%3A6969","udp%3A%2F%2Fexodus.desync.com%3A6969"],"infoHash":"0c8b8c53ce6893c1b22f663f641548490f4c46f0","infoHashBuffer":{"type":"Buffer","data":[12,139,140,83,206,104,147,193,178,47,102,63,100,21,72,73,15,76,70,240]},"announce":[],"urlList":[]}}